<svg width="40" height="40" viewBox="0 0 40 40" fill="none" xmlns="http://www.w3.org/2000/svg">
<rect width="40" height="40" rx="6" fill="#ECF3FC"/>
<path d="M9 25.8223C9 25.27 9.44772 24.8223 10 24.8223H29.6778C30.4062 24.8223 30.8902 25.5761 30.5871 26.2385L29.8218 27.9105L28.7689 30.3965C28.6143 30.7616 28.2563 30.9987 27.8598 30.9987H10C9.44772 30.9987 9 30.551 9 29.9987V25.8223Z" fill="#3B499D"/>
<path d="M9 18.4121C9 17.8598 9.44772 17.4121 10 17.4121H23.675C24.3565 17.4121 24.8384 18.0789 24.6245 18.726L24.0379 20.5003L23.2315 23.1369C23.1494 23.4053 22.9016 23.5886 22.621 23.5886H10C9.44771 23.5886 9 23.1409 9 22.5886V18.4121Z" fill="#3B499D"/>
<path d="M9 11C9 10.4477 9.44772 10 10 10H28.4783C29.1975 10 29.6816 10.7366 29.3962 11.3968L28.665 13.0882L27.6591 15.603C27.5206 15.9494 27.1851 16.1765 26.8121 16.1765H10C9.44771 16.1765 9 15.7288 9 15.1765V11Z" fill="#3B499D"/>
</svg>
