<svg width="18" height="18" viewBox="0 0 18 18" fill="none" xmlns="http://www.w3.org/2000/svg">
<g id="logout">
<path id="Vector" fill-rule="evenodd" clip-rule="evenodd" d="M1.5 4.875C1.5 3.01104 3.01104 1.5 4.875 1.5H9C10.6569 1.5 12 2.84315 12 4.5V5.25C12 5.66421 11.6642 6 11.25 6C10.8358 6 10.5 5.66421 10.5 5.25V4.5C10.5 3.67157 9.82843 3 9 3H4.875C3.83947 3 3 3.83947 3 4.875V13.125C3 14.1605 3.83947 15 4.875 15H9C9.82843 15 10.5 14.3284 10.5 13.5V12.75C10.5 12.3358 10.8358 12 11.25 12C11.6642 12 12 12.3358 12 12.75V13.5C12 15.1569 10.6569 16.5 9 16.5H4.875C3.01104 16.5 1.5 14.989 1.5 13.125V4.875ZM13.7197 6.21967C14.0126 5.92678 14.4874 5.92678 14.7803 6.21967L17.0303 8.46967C17.3232 8.76256 17.3232 9.23744 17.0303 9.53033L14.7803 11.7803C14.4874 12.0732 14.0126 12.0732 13.7197 11.7803C13.4268 11.4874 13.4268 11.0126 13.7197 10.7197L14.6893 9.75L8.25 9.75C7.83579 9.75 7.5 9.41421 7.5 9C7.5 8.58579 7.83579 8.25 8.25 8.25L14.6893 8.25L13.7197 7.28033C13.4268 6.98744 13.4268 6.51256 13.7197 6.21967Z" fill="#222222"/>
</g>
</svg>
